<?xml version="1.0" encoding="UTF-8" standalone="no"?>
<!-- Created with Inkscape (http://www.inkscape.org/) -->

<svg
   xmlns:dc="http://purl.org/dc/elements/1.1/"
   xmlns:cc="http://creativecommons.org/ns#"
   xmlns:rdf="http://www.w3.org/1999/02/22-rdf-syntax-ns#"
   xmlns:svg="http://www.w3.org/2000/svg"
   xmlns="http://www.w3.org/2000/svg"
   xmlns:sodipodi="http://sodipodi.sourceforge.net/DTD/sodipodi-0.dtd"
   xmlns:inkscape="http://www.inkscape.org/namespaces/inkscape"
   width="1080"
   height="1620"
   id="svg2"
   version="1.1"
   inkscape:version="0.48.4 r9939"
   sodipodi:docname="bestOnes.svg">
  <defs
     id="defs4">
    <inkscape:path-effect
       effect="spiro"
       id="path-effect3328"
       is_visible="true" />
  </defs>
  <sodipodi:namedview
     id="base"
     pagecolor="#ffffff"
     bordercolor="#666666"
     borderopacity="1.0"
     inkscape:pageopacity="0.0"
     inkscape:pageshadow="2"
     inkscape:zoom="0.5"
     inkscape:cx="646.58784"
     inkscape:cy="836.03204"
     inkscape:document-units="px"
     inkscape:current-layer="layer1"
     showgrid="false"
     fit-margin-top="0"
     fit-margin-left="0"
     fit-margin-right="0"
     fit-margin-bottom="0" />
  <metadata
     id="metadata7">
    <rdf:RDF>
      <cc:Work
         rdf:about="">
        <dc:format>image/svg+xml</dc:format>
        <dc:type
           rdf:resource="http://purl.org/dc/dcmitype/StillImage" />
        <dc:title />
      </cc:Work>
    </rdf:RDF>
  </metadata>
  <g
     inkscape:label="Layer 1"
     inkscape:groupmode="layer"
     id="layer1"
     transform="translate(101,565.59375)">
    <path
       id="path3093"
       style="fill:#000000;fill-opacity:1"
       d="m 505.75438,-155.31331 c 0.46469,-42.15946 1.89451,-64.74361 4.03198,-63.68194 1.8769,0.93248 3.35093,15.9769 3.40162,34.72009 0.0515,18.22586 1.57758,34.16339 3.40367,35.49688 1.82281,1.33153 6.44354,2.43586 10.26842,2.45338 6.34503,-0.0206 7.12749,-2.35931 8.93215,-27.26176 1.08785,-15.01115 1.31824,-32.23323 0.51209,-38.27204 -1.01593,-7.60948 -0.23595,-10.57288 2.54446,-9.65618 4.83371,1.59324 7.9868,131.41513 3.19225,131.42811 -3.7711,0.0102 -7.14314,-16.45405 -7.19363,-35.12296 -0.0412,-14.33327 -0.1494,-14.47103 -11.61582,-14.44002 l -11.57655,0.0309 0.0721,24.80683 c 0.0412,14.67525 -1.31226,24.81044 -3.31032,24.8158 -2.21455,0.006 -3.12961,-22.48421 -2.6575,-65.31752 z m 58.86533,37.87844 c -0.0515,-15.00806 -1.08558,-41.71425 -2.30119,-59.34558 l -2.21012,-32.05776 8.74968,-2.22144 c 10.23503,-2.59846 25.29501,0.45747 25.30758,5.12869 0.005,1.78458 -5.20061,3.2586 -11.56769,3.27591 l -11.57646,0.0309 0.0721,26.46149 0.0721,26.46045 9.92264,-0.0309 c 5.45758,-0.0103 9.92654,1.34358 9.93107,3.01781 0.005,1.67432 -4.45432,4.03775 -9.90861,5.25079 -9.76293,2.17261 -9.91594,2.53581 -9.85937,23.44264 l 0.0618,21.23655 13.23028,-0.0309 c 7.27668,-0.0206 13.2344,1.45311 13.23934,3.27169 0.005,1.81961 -7.43319,3.32753 -16.52906,3.35216 l -16.53782,0.0412 -0.0927,-27.28679 z m -267.63552,9.55963 c -7.01692,-10.24235 -8.24129,-16.35421 -9.43455,-47.08559 -1.54873,-39.8902 3.14619,-54.94617 19.58613,-62.80592 11.60427,-5.54795 19.93717,-1.33988 26.09859,13.17979 5.00928,11.80468 6.64188,73.73202 2.35127,89.19384 -6.20088,22.34779 -25.8241,26.16886 -38.60144,7.51788 z m 27.87256,-4.79238 c 3.40635,-6.63137 5.16754,-19.60725 5.27696,-38.87943 0.20504,-35.97249 -2.70128,-51.63533 -10.95608,-59.06553 -6.13762,-5.52467 -6.7244,-5.47263 -13.33527,1.17357 -14.09402,14.17058 -14.1848,85.47272 -0.12879,100.91991 7.65441,8.41274 13.32095,7.18466 19.14276,-4.14852 z m 38.0469,6.5954 c -0.005,-1.78148 -1.7039,-25.63586 -3.77584,-53.00797 -4.29174,-56.69932 -3.48786,-59.49786 17.10657,-59.55361 15.51829,-0.0412 17.19169,5.7296 2.09534,7.2264 -9.89749,0.98502 -10.8277,2.08688 -11.76893,13.98398 -1.70328,21.5267 1.44796,28.42575 12.96867,28.39453 5.86107,-0.0206 9.20602,1.35472 8.01977,3.28571 -1.11938,1.82269 -5.6685,3.32279 -10.10902,3.33484 -7.96197,0.0206 -8.07263,0.43378 -7.99319,29.79077 0.0515,17.63958 -1.26703,29.7715 -3.22707,29.77686 -1.8192,0.005 -3.31146,-1.44899 -3.3163,-3.23151 z m 111.35812,0.73362 c -1.21613,-1.20944 -2.29068,-23.16146 -2.38785,-48.78104 -0.17413,-45.3106 -2.24308,-56.49882 -10.45563,-56.47666 -2.18878,0.006 -4.60466,-1.84836 -5.36887,-4.12029 -1.00151,-2.97495 3.77419,-4.14399 17.07804,-4.17995 14.21024,-0.0412 18.47035,1.09362 18.48065,4.91109 0.008,2.80256 -2.94753,4.9692 -6.79024,4.9796 -6.6019,0.0206 -6.78067,1.54224 -6.02707,51.38691 0.75319,49.79625 0.13395,56.91982 -4.52903,52.28034 z m 280.36737,-121.94243 c -2.93136,-9.52183 -5.28119,-124.66743 -2.54436,-124.67485 4.89811,-0.0103 7.00704,13.12435 7.1651,44.63334 0.0824,16.37214 1.1374,39.93462 2.34457,52.36163 l 2.19517,22.59394 10.80925,-2.05803 c 10.45471,-1.99003 19.73543,3.3334 10.73023,6.15524 -13.01834,4.08041 -29.58418,4.61362 -30.69996,0.99017 z m 49.68528,0.0515 c -0.70579,-2.27214 -2.21784,-28.19289 -3.35926,-57.60242 -1.14133,-29.40851 -2.98525,-55.8229 -4.09762,-58.69873 -1.2795,-3.30713 -0.23493,-5.23255 2.84347,-5.2409 6.19779,-0.0206 9.12627,19.90348 9.24249,62.86806 0.0515,17.71078 1.03036,36.84911 2.1824,42.53142 1.91409,9.43712 3.20327,10.32694 14.91212,10.2952 16.3708,-0.0412 16.65601,5.07275 0.43378,7.79866 -17.66956,2.9699 -20.71199,2.702 -22.1582,-1.95129 z m -72.48282,-1.27207 c -1.16656,-1.16018 -2.13201,-6.21964 -2.14561,-11.24468 -0.0309,-11.27724 -7.09214,-18.75195 -17.20879,-18.21452 -5.96544,0.31529 -8.3127,3.13424 -10.67695,12.81669 -4.90779,20.1012 -9.57386,14.74356 -7.18529,-8.24913 2.72993,-26.27849 11.15082,-87.83748 13.35248,-97.61019 0.92217,-4.09608 3.09612,-7.4506 4.82979,-7.45534 6.08075,-0.0206 14.09238,37.90275 24.95614,118.1188 1.39716,10.3153 -1.54306,16.19419 -5.92177,11.83837 z m -8.83849,-41.50673 c -0.009,-4.09257 -1.83475,-20.08812 -4.05754,-35.54572 -3.59861,-25.0229 -4.3043,-26.83436 -6.43786,-16.52092 -1.31793,6.3712 -3.38791,22.37726 -4.60002,35.57013 l -2.20383,23.98554 8.65756,-0.0206 c 6.77191,-0.0206 8.65416,-1.64424 8.64169,-7.46564 z m -182.64847,31.91711 c -8.25387,-9.23539 -12.46142,-29.99499 -12.5623,-61.98432 -0.11849,-36.22709 6.07972,-52.32773 20.79525,-54.05224 21.02925,-2.46492 29.91246,20.42525 28.33282,73.00974 -0.85726,28.5495 -2.17591,36.06543 -7.32789,41.78235 -7.63936,8.47684 -22.2193,9.09742 -29.23788,1.24447 z m 26.28509,-10.85078 c 5.07594,-10.09985 5.38536,-50.03951 0.55948,-72.2482 -1.95541,-8.99902 -6.59005,-19.09424 -10.29902,-22.4329 -6.5747,-5.91712 -6.89596,-5.88014 -12.84142,1.50298 -8.73886,10.85273 -11.16081,34.00327 -6.75449,64.56412 5.2544,36.44295 18.77389,49.63006 29.33545,28.614 z M 91.258091,-261.99588 c -0.131885,-48.7728 3.770792,-98.09838 7.762697,-98.1092 2.596182,-0.007 3.354012,10.52436 2.515712,34.96048 l -1.19985,34.97159 11.13073,-1.09547 11.13072,-1.09455 0.74598,-29.77108 c 0.85622,-34.18451 2.85707,-45.76396 7.4235,-42.9583 5.75134,3.53299 2.11862,130.58404 -3.73411,130.59991 -1.63579,0.004 -2.68892,-9.60703 -2.34025,-21.35813 0.71816,-24.21851 -3.06994,-31.39091 -15.32591,-29.01368 -7.65925,1.48588 -8.24006,2.95991 -8.19174,20.78907 0.0515,20.42257 -2.088942,29.65837 -6.888749,29.67135 -1.624561,0.004 -2.987309,-12.41187 -3.028421,-27.59199 z m 95.963899,16.03439 c -0.0412,-17.06577 -2.96897,-21.76141 -13.52682,-21.73287 -10.24595,0.0309 -16.21006,7.50676 -16.34555,20.49892 -0.0721,6.78303 -0.46676,7.00054 -3.45891,1.89492 -2.4034,-4.1005 -0.99017,-22.08 4.89347,-62.27065 4.54984,-31.07758 8.27087,-57.14135 8.2687,-57.91926 -0.002,-0.77277 2.73117,-1.4221 6.07385,-1.43106 5.07491,-0.0103 6.97447,5.02978 11.51246,30.56425 2.98907,16.81973 6.33257,40.25341 7.43,52.07488 1.09743,11.82137 2.78649,27.81733 3.75348,35.54654 1.40942,11.26621 0.73361,14.05518 -3.40604,14.06641 -3.67322,0.01 -5.1729,-3.25026 -5.19464,-11.29208 z m -4.56623,-39.12177 c -1.05508,-5.91032 -2.9396,-20.04484 -4.18798,-31.41151 -1.24848,-11.36668 -3.3738,-20.66295 -4.72294,-20.65935 -1.34925,0.004 -3.42429,9.31143 -4.61115,20.68459 -1.18687,11.37327 -2.99494,25.51778 -4.01798,31.43377 -1.78107,10.29913 -1.4088,10.75351 8.79913,10.7259 10.20794,-0.0309 10.57784,-0.48221 8.74092,-10.7734 z m 133.11995,44.2924 c -11.87278,-14.26928 -14.49514,-25.07163 -14.56562,-59.99862 -0.0721,-36.98553 2.55353,-46.14735 15.7291,-54.8319 10.08038,-6.64322 19.7617,-3.39595 27.26237,9.14595 8.06418,13.48302 11.08817,68.14059 4.98806,90.15732 -5.68911,20.53293 -22.67915,28.42813 -33.41391,15.52725 z m 24.29805,-8.33547 c 2.75104,-4.84597 4.17881,-20.17848 4.08247,-43.83626 -0.12261,-30.13769 -1.26085,-38.22608 -6.629,-47.11588 -7.73683,-12.81216 -13.0036,-13.5058 -20.07915,-2.64214 -10.85273,16.66146 -8.64829,91.06806 2.91446,98.36668 7.48255,4.72253 15.41134,2.80319 19.71122,-4.7724 z m 262.37493,2.59742 c -1.02314,-5.9095 -3.3876,-29.93718 -5.25625,-53.39445 -3.87167,-48.60083 -2.89448,-51.59978 16.82972,-51.65316 15.51814,-0.0412 17.19164,5.73074 2.09523,7.22743 -11.97407,1.18646 -14.62003,7.95383 -10.85068,27.75015 1.61529,8.48374 3.92957,11.15535 10.34477,11.94274 11.53957,1.4154 11.69742,7.39414 0.2308,8.73577 l -9.49936,1.11175 2.38836,29.50299 c 1.58077,19.52719 1.23664,29.50618 -1.01799,29.51226 -1.87329,0.005 -4.24249,-4.82608 -5.2648,-10.73548 z m -221.6216,0.4039 c -2.7631,-4.1922 -6.54914,-15.54785 -8.41347,-25.23546 -4.16634,-21.64787 -4.66462,-86.16655 -0.66561,-86.17737 1.60035,-0.004 3.99366,18.96626 5.31828,42.15709 3.41192,59.7331 9.85484,80.02914 20.67882,65.14318 3.26911,-4.49709 4.40683,-19.48989 4.30596,-56.7464 -0.0824,-31.55237 1.10959,-50.63888 3.17061,-50.64454 2.07503,-0.006 3.36411,20.90003 3.45942,56.10295 0.14116,52.0926 -0.30602,56.35951 -6.23654,59.55412 -9.91624,5.34147 -16.14855,4.14461 -21.61747,-4.15357 z m 64.22143,0.0206 c -2.13562,-10.47191 -1.91667,-29.35183 0.3565,-30.76538 1.68443,-1.04736 3.04883,5.54331 3.07397,14.85041 0.0206,9.20313 -0.69859,16.73493 -1.60849,16.7374 -0.90981,0.002 -1.72956,-0.36578 -1.82229,-0.81913 z m -232.24837,-52.2927 c -1.03747,-49.85322 -1.13803,-50.45052 -8.68518,-51.49963 -4.19952,-0.58627 -7.06782,-2.80813 -6.37388,-4.94395 2.47223,-7.60763 38.78237,-6.63539 38.80318,1.03973 0.005,1.78458 -3.71237,3.25469 -8.26026,3.26695 l -8.2689,0.0206 0.13909,51.26729 c 0.18444,67.95163 -5.94257,68.65649 -7.35364,0.84386 z m -152.388836,45.34017 c -1.216129,-1.20943 -2.2708,-24.2763 -2.343853,-51.26121 -0.126733,-46.85726 -0.430688,-49.06139 -6.7479,-49.04429 -3.63839,0.01 -6.619208,-1.47104 -6.624154,-3.28962 -0.0049,-1.8196 8.177312,-3.32959 18.18268,-3.35658 17.815771,-0.0515 25.466778,5.05502 10.769274,7.18229 -7.392284,1.07095 -7.432262,1.39665 -6.341734,51.5155 0.996354,45.80404 -0.29159,54.82109 -6.894313,48.25391 z m 383.554506,-31.08747 c -0.84901,-1.36491 -2.65728,-16.24365 -4.0189,-33.06461 -2.17147,-26.82366 -3.23665,-30.58157 -8.66436,-30.56694 -3.40368,0.009 -6.1946,-2.2335 -6.20202,-4.98352 -0.0103,-4.58508 9.97714,-5.18598 33.89735,-2.03917 6.68351,0.87786 1.38923,6.94397 -6.0794,6.96417 l -8.57884,0.0206 1.22633,33.07636 c 0.67488,18.19123 0.94277,33.07502 0.59451,33.07389 -0.34723,-10e-5 -1.32617,-1.11845 -2.17487,-2.48347 z m 412.35991,-77.33064 c -5.95741,-0.85931 -7.3112,-3.9852 -9.15316,-21.15834 -1.18893,-11.08457 -2.20764,-37.13442 -2.2639,-57.88774 l -0.10303,-37.73253 15.71374,0.9675 c 17.90459,1.10032 21.22686,7.03753 4.84442,8.65735 l -10.88725,1.07631 1.0318,23.75732 1.0318,23.75721 11.58181,1.87483 11.5816,1.87484 -9.3007,3.90649 c -5.11531,2.14983 -10.6921,3.91133 -12.39291,3.91597 -1.70071,0.005 -3.06799,8.93946 -3.03852,19.85402 l 0.0515,19.84557 13.23028,-0.0309 c 7.27667,-0.0206 13.23388,1.28413 13.23831,2.89663 0.009,3.33733 -14.72275,5.93248 -25.1687,4.4327 z m -54.34135,-17.89964 c -0.18959,-23.88116 -3.20564,-77.59802 -5.18784,-92.39886 -1.5817,-11.81086 2.38847,-19.47207 6.58964,-12.71603 1.1337,1.82373 2.84759,23.05276 3.8085,47.17708 2.57352,64.59968 2.76588,65.35843 16.54998,65.32113 14.24816,-0.0412 14.96756,5.04225 1.11175,7.85255 -21.69856,4.40064 -22.72139,3.7202 -22.87203,-15.23587 z m -297.56936,-46.30788 c 0.17516,-53.02476 0.92423,-61.57774 5.62151,-64.2241 7.42876,-4.18376 21.50187,3.46158 26.5264,14.41096 8.15516,17.77023 2.4101,37.74583 -14.76262,51.32921 -9.2631,7.32716 -10.13056,10.80801 -10.53219,42.27115 -0.12261,9.56932 -1.75583,17.37045 -3.6386,17.3755 -2.24082,0.006 -3.34721,-21.04532 -3.2145,-61.16272 z m 25.10698,-29.16317 c 2.04896,-12.84586 -6.1641,-30.86007 -12.32336,-27.03107 -1.73625,1.08033 -3.126,13.36907 -3.08829,27.30978 l 0.0721,25.34664 6.70277,-6.73915 c 3.68651,-3.70588 7.57455,-12.20559 8.64025,-18.8862 z m 93.18945,85.8796 c -4.96641,-3.81438 -7.1758,-11.38048 -6.2727,-21.4825 0.58215,-6.51236 6.98293,-4.83989 7.00096,1.8295 0.009,3.29096 2.0604,8.76276 4.55891,12.16036 4.39916,5.98172 4.66046,5.95628 8.2667,-0.82635 7.31233,-13.75246 4.25877,-32.20097 -9.64501,-58.27267 -12.59671,-23.6209 -15.85675,-37.88977 -11.3573,-49.71083 3.74864,-9.84804 31.05683,-4.24568 31.08558,6.37718 0.0206,6.32741 -5.35218,6.2626 -7.81154,-0.0927 -3.03223,-7.83904 -11.9018,-5.74917 -15.44138,3.63664 -3.38441,8.97429 1.77479,23.1288 17.00917,46.66325 3.77203,5.82779 7.71819,18.71311 8.76946,28.63471 1.72419,16.27601 1.07723,18.87837 -6.61787,26.61562 -9.67102,9.72285 -12.009,10.2577 -19.54498,4.46999 z m 43.89021,-2.38249 c -4.76395,-8.84406 -4.40878,-20.91158 0.5667,-19.26816 2.22567,0.73567 4.88265,4.83556 5.90414,9.11091 2.54282,10.64182 9.29288,12.07124 12.81979,2.71427 4.66204,-12.36869 -1.05591,-37.60725 -12.76054,-56.32303 -13.50528,-21.59481 -16.23593,-35.99485 -8.9472,-47.18575 2.99061,-4.59116 7.63576,-8.35319 10.32252,-8.3605 6.36924,-0.0206 6.33143,6.25673 -0.0515,8.72628 -9.21231,3.56421 -5.86849,24.31278 7.34787,45.59611 16.10064,25.92765 19.13968,50.95313 7.67728,63.22064 -9.12791,9.7688 -18.19185,10.47027 -22.87862,1.76923 z m 47.62818,-50.78756 c 1.23828,-31.3839 3.00874,-58.30997 3.9342,-59.83531 5.7057,-9.40405 7.46617,9.42302 5.61348,60.03829 -1.71183,46.77051 -2.94063,56.83636 -6.93985,56.84718 -4.17954,0.0103 -4.54438,-7.97196 -2.60783,-57.05016 z m 34.68753,46.2136 c -0.15146,-5.91279 -2.21599,-32.32667 -4.58869,-58.69851 -2.3727,-26.37174 -3.17988,-49.25387 -1.79385,-50.84948 3.71989,-4.28195 18.7841,-3.56544 24.51659,1.16595 5.36475,4.42836 6.68041,22.03672 2.17982,29.17688 -1.82425,2.89509 0.35444,7.46915 6.43415,13.51744 26.14393,26.00246 16.24531,76.32109 -15.03051,76.40569 -10.65429,0.0309 -11.46167,-0.71095 -11.71751,-10.71797 z m 24.27775,-1.72048 c 8.15938,-9.10268 10.1254,-22.97662 5.54856,-39.15423 -6.11845,-21.62716 -27.29184,-34.66877 -24.95036,-15.36826 0.60688,5.00072 1.30402,20.6273 1.54955,34.72606 0.39257,22.57313 1.17481,25.63009 6.54904,25.61556 3.35638,-0.009 8.44284,-2.62761 11.30321,-5.81913 z m -10.3796,-85.26397 c 3.12785,-6.91502 2.82009,-9.37675 -1.73872,-13.91134 -7.63926,-7.59784 -12.83473,-1.54996 -10.12901,11.79097 2.57702,12.70666 6.74223,13.45068 11.86773,2.12037 z m -186.77751,91.37284 c -13.28314,-3.75884 -17.76529,-11.31165 -22.32554,-37.62188 -4.70192,-27.12688 -2.35446,-61.20207 4.99352,-72.48282 7.14943,-10.97617 22.7216,-13.01617 31.15949,-4.08103 17.02002,18.02329 18.23234,95.27943 1.74171,110.98967 -4.65247,4.4328 -8.44634,5.21174 -15.56918,3.19606 z m 17.96311,-30.7966 c 1.49762,-62.17174 -7.45205,-91.17686 -23.23596,-75.30682 -7.93075,7.97372 -11.86217,39.00854 -8.51279,67.2004 1.82774,15.38341 4.47143,22.41569 10.78947,28.70024 l 8.36854,8.32331 6.13041,-7.61237 c 3.55782,-4.41857 6.26878,-13.35917 6.46033,-21.30476 z m -454.73713,25.26596 c -0.93762,-4.37447 -4.18427,-26.55236 -7.2166,-49.28323 -3.03224,-22.7318 -6.86207,-46.4918 -8.51064,-52.79932 -3.37596,-12.91778 0.96957,-21.01884 6.01872,-11.22037 1.73862,3.3738 5.03123,19.91347 7.31666,36.75473 2.28553,16.84013 5.27985,34.6933 6.65414,39.67239 2.2131,8.01957 2.71416,8.29735 4.38364,2.43319 1.03664,-3.64097 2.82905,-12.29977 3.98294,-19.24137 2.70438,-16.26746 7.62628,-14.3509 15.67841,6.10671 3.54411,9.0051 7.67171,17.62309 9.17232,19.15121 1.50061,1.52915 3.74782,-17.26865 4.99382,-41.77297 1.24581,-24.50319 3.41264,-46.42071 4.81506,-48.70263 3.88897,-6.33174 10.15766,-0.57391 8.30621,7.63308 -0.8995,3.98479 -2.98968,30.91375 -4.64556,59.84252 -1.65589,28.92867 -4.44331,54.03884 -6.19419,55.7993 -3.75461,3.77512 -10.16332,-7.65791 -18.55515,-33.10057 -3.15207,-9.55624 -6.87701,-16.66188 -8.27798,-15.79154 -1.40087,0.86962 -3.49476,10.89415 -4.65288,22.27247 -2.33839,22.97517 -10.26636,36.26655 -13.26892,22.2464 z m 119.29052,4.17665 c -1.12009,-1.8227 2.5014,-112.36118 3.90309,-119.13854 0.0927,-0.45336 2.57857,-0.8315 5.52106,-0.83974 4.6163,-0.0103 5.09047,3.27508 3.45808,23.97121 -1.04056,13.19133 -2.8106,40.01128 -3.93349,59.59833 -1.84711,32.22024 -4.61135,43.46791 -8.94874,36.41029 z m 29.785,-3.61778 c -6.77623,-7.44762 -8.61964,-20.9156 -3.13156,-22.87997 2.32644,-0.83047 4.15986,1.16956 4.19767,4.58508 0.0412,3.33516 1.42498,8.19679 3.08478,10.80431 5.76783,9.06074 13.42563,-2.27637 13.37824,-19.8058 -0.0309,-12.16634 -3.27087,-22.0325 -13.88971,-42.32453 -12.03455,-22.99804 -13.45139,-27.85442 -10.82532,-37.10587 3.69959,-13.03173 10.81275,-17.96579 21.92823,-15.20774 9.34975,2.31985 14.50647,11.35349 9.40724,16.48095 -2.19908,2.21093 -4.0089,1.4801 -5.42966,-2.19239 -2.70304,-6.98777 -13.31003,-7.14655 -15.93919,-0.23492 -3.87928,10.19145 -1.81528,17.44164 11.33031,39.79788 10.98358,18.67952 13.29993,25.65492 13.33918,40.1716 0.0412,14.2425 -1.48515,19.10897 -8.04913,25.7086 -9.66968,9.72181 -12.29111,10.02051 -19.40108,2.20702 z m 92.44966,3.08097 c -1.80085,-2.89561 3.77059,-117.09721 5.81286,-119.14999 7.40578,-7.44689 8.52279,26.17381 3.24829,97.77846 -1.59818,21.6965 -4.54211,28.63975 -9.06115,21.37153 z m -307.215891,-6.72318 c -12.558177,-7.26915 -17.138828,-22.87502 -17.384362,-59.22534 -0.266862,-39.44766 5.430694,-54.84323 22.409095,-60.55305 8.048312,-2.70695 10.673142,-1.9145 18.092422,5.46449 8.044916,8.00164 8.778936,11.1639 10.056986,43.3354 1.67526,42.17018 -0.63367,56.24082 -10.928461,66.59084 -8.564622,8.61119 -13.325894,9.55036 -22.24568,4.38766 z m 20.311291,-17.94405 c 2.616381,-5.49787 5.22112,-23.68045 5.919185,-41.32106 1.021085,-25.79268 0.152493,-33.59937 -4.790328,-43.06432 -7.518708,-14.39746 -13.793263,-14.62878 -21.816743,-0.80676 -9.052599,15.59741 -9.798473,74.77597 -1.109281,88.00707 7.43999,11.32814 15.564239,10.2779 21.797167,-2.8173 z m -97.0968735,12.62814 c -1.2356021,-3.1805 -1.2631126,-30.71572 -0.061821,-61.19084 1.7117293,-43.39507 3.1619544,-55.41097 6.6886546,-55.42045 3.5129965,-0.01 4.523569,7.62371 4.5969303,34.71783 0.072125,28.48201 0.9860501,34.80179 5.0564686,35.12975 17.588165,1.41767 16.484243,3.59986 17.383846,-34.3641 0.473963,-20.02227 2.238756,-35.56271 4.038271,-35.56766 1.940572,-0.005 3.260663,24.02222 3.361226,61.18188 0.141158,52.18627 -0.564635,61.1925 -4.795789,61.20393 -3.901235,0.0103 -4.973731,-4.58085 -5.019479,-21.48589 l -0.06182,-21.49929 -11.57666,0.0309 -11.5764538,0.0309 0.061821,21.49939 c 0.051518,20.79865 -3.4670426,27.64567 -8.0959139,15.73281 z m 423.7015835,-0.96132 c -1.16636,-1.16008 -2.18023,-24.08383 -2.25298,-50.942 -0.12982,-48.12265 -0.24007,-48.84771 -7.57702,-49.86951 -10.9092,-1.51916 -7.50521,-7.25195 4.11565,-6.93099 5.458,0.15043 13.64499,0.39565 18.19329,0.54814 10.29274,0.34311 10.93619,6.04953 0.84799,7.51006 -7.39177,1.06992 -7.43062,1.38634 -6.09291,49.42522 1.23828,44.46498 -0.55227,56.90003 -7.2333,50.25475 z m 263.38341,-92.82688 c -1.08487,-2.80483 -1.14555,-5.93072 -0.13498,-6.94634 2.8886,-2.90416 8.90309,1.99229 8.91731,7.25947 0.0206,6.34699 -6.293,6.12186 -8.78233,-0.31632 z" />
    <path
       id="path3061"
       style="fill:#000000;fill-opacity:1"
       d="m 747.10384,443.68396 c -8.73102,-4.15552 -16.64013,-8.31744 -17.5757,-9.24836 -0.93556,-0.93556 6.34905,-28.29747 16.18822,-60.81642 22.24115,-73.50524 23.74186,-84.38064 14.08166,-102.04165 -3.99561,-7.3047 -8.99046,-14.38932 -11.0997,-15.74475 -4.71285,-3.02678 -44.32836,-72.58421 -44.34258,-77.85654 -0.0103,-4.71799 38.67686,-24.7447 40.89882,-21.17122 0.88817,1.42776 3.36854,15.9161 5.5125,32.1951 2.14386,16.28013 5.18784,32.5721 6.76418,36.2071 5.15302,11.87845 13.20751,38.12355 13.2209,43.07853 0.007,2.6645 1.14545,4.84267 2.52942,4.83896 1.38398,-0.004 7.14789,-18.25264 12.80876,-40.55355 13.38154,-52.71534 19.88668,-75.54616 22.18283,-77.85519 5.47129,-5.50045 5.12787,6.01985 -1.22829,41.19495 -11.37398,62.94451 -32.57859,222.56952 -32.51842,244.79418 0.0412,13.36577 -4.5552,13.8655 -27.4226,2.97886 z M 468.38102,369.76813 c -74.58959,-1.13865 -217.11091,-2.9836 -316.71423,-4.10092 l -181.096897,-2.03011 -0.04121,-16.06932 -0.04121,-16.06942 382.854797,-0.19164 382.85465,-0.19165 1.04375,19.01655 1.04365,19.01562 -42.66454,0.1154 c -23.46552,0.0618 -53.67873,0.67076 -67.14039,1.34914 -13.4618,0.67489 -85.50352,0.33487 -160.09331,-0.83561 z m 331.3036,-2.99957 c -1.21602,-1.20943 -2.23051,-9.39293 -2.25431,-18.18598 l -0.0412,-15.98689 35.55653,-0.0927 c 19.55614,-0.0412 45.60589,0.84489 57.88845,1.97612 l 22.33192,2.04772 0.0412,16.06005 0.0412,16.05912 -55.67762,0.15043 c -30.62267,0.0824 -56.67253,-0.83562 -57.88866,-2.04824 z M 290.44885,314.92458 c -3.18544,-0.7027 -5.79657,-3.02698 -5.80234,-5.17218 -0.006,-2.14623 -3.873,-33.65542 -8.59388,-70.02161 C 266.83466,168.7218 257.66202,76.596491 257.53364,53.737234 l -0.0824,-14.056932 17.74777,-0.05152 17.74787,-0.05152 2.81833,137.460738 c 1.55007,75.60356 2.29027,137.84145 1.64506,138.30583 -0.645,0.46572 -3.77944,0.2679 -6.96489,-0.4245 z m -164.82861,-74.77732 -4.47319,-74.40865 -11.30042,0.0309 c -8.97512,0.0206 -11.078176,-1.16111 -10.219787,-5.76092 0.690337,-3.70083 4.680287,-6.15462 11.052927,-6.79839 l 9.97199,-1.00563 -4.08989,-45.31544 c -6.47434,-71.73354 -7.20105,-66.805454 9.85772,-66.851614 17.20569,-0.05152 18.47045,2.553736 18.63613,38.314999 0.0618,12.914268 1.10207,34.865375 2.31635,48.781245 2.04845,23.47531 2.74929,25.29811 9.72068,25.27925 4.13213,-0.0103 9.86987,0.87993 12.75044,1.97365 10.06667,3.83148 5.13127,7.90035 -9.63084,7.94033 l -14.8841,0.0412 0.17826,65.73843 c 0.20091,74.03803 -1.18223,86.41425 -9.6566,86.43722 -5.17259,0.0103 -6.20943,-7.52643 -10.22926,-74.39309 z m 86.6705,41.93804 c -0.47087,-17.73633 -2.30346,-49.3603 -4.07289,-70.276 -1.76943,-20.9156 -3.24573,-39.88877 -3.28066,-42.16266 -0.0412,-2.51087 -4.61176,-4.12234 -11.64002,-4.10328 -15.34993,0.0412 -16.08612,-9.02777 -0.85623,-10.53827 8.60769,-0.85829 10.54713,-2.38187 9.74325,-7.6778 -2.93961,-19.368 -4.74891,-104.212093 -2.22711,-104.436401 1.61126,-0.138067 5.69302,-0.788222 9.07063,-1.43817 14.73099,-2.822864 15.35363,-0.556392 15.50818,56.553628 l 0.14631,54.221213 13.23038,-0.0309 c 9.55511,-0.0309 13.23399,1.34286 13.24378,4.9253 0.01,3.70001 -3.90206,4.97281 -15.37991,5.00392 l -15.3931,0.0412 2.52273,76.06763 c 2.41247,72.74102 2.2541,76.06845 -3.61892,76.08432 -5.51147,0.0103 -6.22963,-3.2926 -6.99756,-32.2292 z M 18.512945,307.41669 C 17.233243,303.41922 5.3220266,148.27635 0.7405517,75.931705 L -1.5108777,40.38115 17.47208,40.329632 36.454934,40.278114 34.444299,173.41527 c -1.105881,73.22437 -2.653783,134.25468 -3.439842,135.62104 -2.306347,4.00911 -11.052415,2.87469 -12.491512,-1.61993 z m 43.083174,-6.73255 C 59.57755,288.25723 54.214448,233.50405 50.907419,191.56199 l -2.281413,-28.93454 20.236591,-0.0515 c 11.13031,-0.0309 20.240197,1.23313 20.244525,2.80649 0.0042,1.57438 -3.629221,33.93444 -8.074483,71.91004 -4.445056,37.97663 -8.078913,70.18832 -8.075204,71.58136 0.0038,1.39304 -2.158285,2.53838 -4.80465,2.5456 -2.871291,0.008 -5.515286,-4.31977 -6.556666,-10.73198 z m 268.870291,5.20824 c -31.06861,-17.48152 -20.31098,-104.02683 16.83766,-135.45751 21.17813,-17.91747 38.75898,-15.77969 49.37792,6.00532 l 7.19508,14.762 -10.10995,14.77901 c -5.56052,8.12919 -12.24042,16.92173 -14.84433,19.53976 -2.60392,2.61896 -10.83409,11.84651 -18.28922,20.50829 -11.21779,13.03142 -13.26995,17.52315 -11.90277,26.04677 2.01012,12.53396 9.79136,18.70847 23.5292,18.67127 13.23254,-0.0309 26.92977,-13.9642 30.40444,-30.91787 2.7935,-13.62985 8.59203,-17.78352 10.09192,-7.22846 1.57047,11.05046 -13.21348,35.74591 -27.28051,45.56932 -16.34473,11.41428 -42.03788,15.02001 -55.00944,7.7221 z m 37.80034,-78.42714 c 20.61896,-17.08968 23.51714,-36.34053 6.44044,-42.78046 -6.205,-2.33962 -10.67716,-1.68865 -17.9017,2.60474 -9.13369,5.42905 -9.62733,6.88216 -9.56973,28.16404 0.0721,26.09468 2.42071,27.436 21.03099,12.01168 z m 136.54104,70.95707 c -6.50886,-6.47465 -7.0637,-34.09199 -0.85623,-42.62982 3.30848,-4.55077 5.08811,-5.06461 6.98303,-2.01682 1.39871,2.24968 0.89126,5.75114 -1.12782,7.78124 -4.48102,4.50554 -4.68709,22.03869 -0.33796,28.81904 2.48614,3.87775 4.45196,4.1341 9.04837,1.18306 6.78417,-4.35614 7.01332,0.38329 -4.06351,-84.0467 -7.97763,-60.80766 -18.79513,-155.196452 -18.83438,-164.341782 -0.0103,-2.883965 6.48371,-4.152332 21.48157,-4.192928 l 21.49929,-0.06182 0.17928,66.1517 c 0.10304,36.3837 0.80883,66.14994 1.5783,66.14788 0.76967,-0.002 5.85262,-4.48143 11.29527,-9.95303 9.81001,-9.86338 26.63355,-13.40698 35.55024,-7.488 24.8328,16.48455 3.80006,97.2742 -34.53359,132.64918 -17.19509,15.86768 -38.57805,21.22676 -47.86062,11.99519 z m 69.2881,-55.60024 c 10.97658,-24.63673 14.65093,-62.94719 7.00425,-73.02819 -7.02094,-9.25527 -20.12624,-4.58827 -29.44168,10.48531 -7.10193,11.49124 -7.60114,15.40278 -6.61488,51.82234 0.5873,21.6658 1.91162,40.75169 2.94434,42.41293 3.38668,5.44656 16.83467,-10.87777 26.10797,-31.69239 z m 52.03253,50.4498 C 592.9381,260.73438 602.1163,183.67679 641.85933,161.19804 c 16.75172,-9.47515 27.02787,-8.67971 38.77196,3.00163 10.8718,10.81296 17.15954,32.36964 17.23177,59.07738 0.10612,39.28941 -21.72618,75.30496 -47.75656,78.78066 -11.58696,1.54708 -14.54274,0.4616 -23.97808,-8.78584 z m 28.36904,-11.64157 c 17.31904,-22.13976 15.28141,-96.67567 -2.79834,-102.36065 -18.02483,-5.66665 -24.4541,12.23165 -22.72809,63.27092 1.23591,36.54866 4.61815,47.49949 14.66206,47.47229 2.37404,-0.006 7.26287,-3.77842 10.86437,-8.38256 z m 186.14132,9.84927 c -13.94731,-7.68068 -21.20812,-30.08267 -15.01991,-46.34096 3.78666,-9.94808 8.21194,-5.31416 6.05757,6.34298 -4.63908,25.10285 19.0659,37.72141 36.99655,19.69307 6.7137,-6.75047 8.08479,-10.98698 7.23135,-22.34645 -1.05282,-14.01613 -1.05282,-14.01613 -21.82561,-21.06427 -26.0956,-8.85436 -29.53246,-11.75584 -32.17975,-27.17109 -2.6544,-15.45646 5.43863,-37.49504 17.17932,-46.78256 8.92422,-7.05835 27.11164,-8.70877 37.1508,-3.37091 7.63411,4.05857 15.40371,25.71118 10.86407,30.27555 -2.06906,2.07977 -3.96388,-0.54609 -5.35816,-7.41743 -6.36739,-31.39431 -30.85017,-22.0631 -36.85004,14.0456 -2.84646,17.12914 0.55021,25.6678 11.11506,27.93592 26.94555,5.78359 39.9781,17.01848 42.68556,36.79708 4.33863,31.69548 -29.87319,54.91969 -58.04681,39.40347 z M 56.693998,119.07186 C 54.43515,116.82455 52.569588,108.51875 52.548157,100.61387 52.476032,72.260653 78.236564,60.821957 83.518371,86.864394 87.779406,107.87324 68.594808,130.90837 56.693998,119.07186 z" />
    <path
       id="path3098"
       style="fill:#000000;fill-opacity:1"
       d="m 873.15875,966.02455 c -1.1065,-2.86129 -1.13659,-7.49995 -0.0721,-10.30973 2.68336,-7.04969 16.10322,0.10304 14.64279,7.72973 -1.38747,7.3114 -12.01744,9.19283 -14.57571,2.58 z m -63.21343,-1.79384 c -7.85904,-3.13847 -12.12646,-14.19212 -10.36857,-26.85725 1.56943,-11.30815 7.12501,-9.54727 11.42025,3.62067 4.62186,14.16842 9.07568,15.89633 15.85954,6.15535 9.38231,-13.47293 4.71058,-36.06038 -12.65328,-61.17735 -15.39145,-22.26392 -19.7683,-36.72805 -15.15416,-50.08042 2.02125,-5.84933 6.36935,-12.08607 9.66257,-13.86034 8.25552,-4.44599 25.94177,-0.42245 29.82724,6.79519 4.53243,8.41491 4.08526,9.69255 -3.39883,9.71316 -3.63829,0.0103 -6.6188,-1.31164 -6.62313,-2.93651 -0.0103,-5.18269 -10.60256,-7.20219 -15.65449,-2.98597 -7.77084,6.48505 -3.02884,26.90155 10.50705,45.23672 12.64946,17.13378 21.90545,39.0381 21.94038,51.92166 0.0309,11.98304 -9.89924,30.10905 -18.71434,34.15422 -4.37551,2.00713 -8.25789,3.55782 -8.62737,3.44345 -0.36887,-0.11334 -3.97975,-1.52905 -8.02286,-3.14258 z m -435.52261,-4.96529 c -8.16124,-8.96924 -8.97759,-27.86183 -1.27331,-29.4661 3.97088,-0.82428 5.79059,0.8552 5.80286,5.38258 0.0309,9.8265 3.52824,17.04105 8.26396,17.02868 7.99741,0 12.46926,-10.10263 12.26411,-27.64649 -0.17722,-15.07822 -2.46522,-21.25726 -15.87283,-42.85248 -14.16903,-22.82134 -15.50756,-26.68002 -14.00211,-40.37035 1.70575,-15.50994 8.79295,-24.41118 19.62023,-24.64301 9.99166,-0.21638 22.50183,7.33922 22.51872,13.59554 0.0206,7.29079 -9.31101,8.1872 -12.03115,1.15503 -2.81472,-7.27637 -13.63088,-6.00595 -17.94466,2.10707 -5.57938,10.49314 -1.59675,23.25615 14.59323,46.76783 15.94166,23.15002 20.58619,40.7454 15.58629,59.04657 -5.78246,21.16453 -26.41574,32.10381 -37.52534,19.89513 z m 211.32815,2.98803 c -17.93993,-3.58254 -27.4667,-21.62715 -30.30183,-57.39491 -3.60799,-45.51904 5.54702,-74.09594 26.28385,-82.0441 11.53813,-4.42332 25.14211,0.78307 25.16612,9.64618 0.01,3.68352 1.26755,6.69319 2.79474,6.68907 9.59858,0 16.10579,49.16856 11.09765,83.89668 -4.33667,30.07195 -15.91384,43.02558 -35.04053,39.20708 z m 16.34483,-17.0771 c 8.75328,-9.7245 13.51507,-58.12029 8.16619,-82.99307 -10.00156,-46.5092 -39.35978,-40.59187 -42.35451,8.53753 -3.65519,59.96256 13.53557,97.40052 34.18832,74.45554 z m 39.72964,-2.75105 c 0.84592,-12.28184 2.28553,-42.37337 3.19863,-66.87109 2.30017,-61.70891 7.81133,-64.66881 28.07203,-15.07616 5.93938,14.53625 14.74222,36.0954 19.56212,47.9074 l 8.76338,21.47569 2.16746,-45.90542 c 2.2912,-48.52252 3.38956,-54.99212 9.33986,-55.00861 2.66543,-0.007 3.11682,11.87588 1.60169,42.16832 -1.16018,23.19742 -2.45689,53.3415 -2.8816,66.9865 -1.09145,35.06917 -7.44225,35.1279 -21.25705,0.20607 -5.78112,-14.61662 -15.2165,-38.47038 -20.96753,-53.00869 -5.75103,-14.53729 -11.73678,-26.42862 -13.30188,-26.4245 -1.56501,0.004 -2.78114,23.82285 -2.70232,52.92936 0.13704,50.77694 -0.1257,52.92111 -6.49505,52.93862 -6.14823,0 -6.52462,-1.63002 -5.09974,-22.31234 z m 97.67923,21.23562 c -2.03052,-30.02352 -0.56052,-129.22613 1.95118,-131.75257 4.2701,-4.29349 39.08375,-2.6748 39.09591,1.81755 0.005,1.81858 -7.11862,3.78244 -15.83007,4.36356 l -15.83904,1.05302 1.03056,27.09834 1.03046,27.09732 14.06003,0.97884 c 19.23972,1.34049 19.15451,8.25932 -0.14528,11.81302 -14.53646,2.67686 -15.90797,4.90758 -14.17553,23.05008 0.89744,9.39272 1.73172,18.9369 1.85536,21.20986 0.14837,2.72838 5.85149,4.11936 16.76275,4.08948 12.49543,0 16.54122,1.16843 16.55142,4.91686 0.0103,3.93802 -4.76426,4.97352 -23.13972,5.02401 -12.73416,0 -23.17815,-0.3091 -23.20896,-0.76246 z M 26.569911,958.85431 c -1.021082,-2.63977 -0.355472,-31.21049 1.480209,-63.49049 1.835372,-32.28 3.323102,-63.84391 3.306101,-70.14247 -0.02061,-9.12895 1.144003,-11.22881 5.760201,-10.34786 5.20721,0.99944 5.689004,5.10335 4.777037,40.74849 l -1.01387,39.64292 12.44525,-0.37092 c 15.764848,-0.47397 17.382815,-4.58406 18.039255,-45.79003 0.334865,-21.00688 1.917079,-32.71275 4.740046,-35.06865 6.861033,-5.7259 9.05363,1.87988 7.01332,24.3272 -1.021082,11.22881 -2.738375,42.74429 -3.817157,70.03531 -1.80374,45.63547 -4.994957,63.01859 -9.365415,51.01805 -0.938654,-2.57486 -2.139018,-15.84378 -2.66893,-29.48671 L 66.302576,905.1254 52.37413,904.15687 38.445581,903.18834 37.565657,932.04859 c -0.592454,19.42632 -2.230204,29.31155 -5.009278,30.24196 -2.271007,0.76246 -4.964664,-0.78307 -5.98585,-3.42078 z M 239.87757,935.24475 c -0.12261,-15.00816 -1.5616,-46.63388 -3.18998,-70.27848 -2.59371,-37.66051 -2.30686,-43.50469 2.31377,-47.13978 6.59376,-5.18671 17.23712,-5.44018 17.25083,-0.40184 0.006,2.0741 -2.39311,5.53713 -5.33034,7.69778 -4.17974,3.07355 -4.82505,6.92811 -2.96897,17.73654 1.30443,7.59578 4.22198,13.80573 6.48341,13.79955 7.00456,0 12.70531,-14.86494 10.13849,-26.40183 -2.04103,-9.17428 -1.5309,-10.45913 3.75987,-9.47102 8.38307,1.56614 10.01392,20.40206 2.73415,31.57833 -5.12334,7.8647 -5.13457,8.76111 -0.14528,11.53483 16.77903,9.33089 25.22011,25.45699 25.2638,48.26493 0.0515,26.88197 -20.98587,50.24116 -45.33111,50.33492 l -10.74949,0 -0.22977,-27.28587 z m 38.52365,0.10304 c 3.74318,-7.28668 4.8676,-15.80462 3.77316,-28.58206 -1.30917,-15.28429 -3.24428,-19.70039 -12.06804,-27.54243 -18.7165,-16.63199 -20.34065,-14.21066 -20.22062,30.13789 0.0927,34.86105 0.77998,39.59965 5.89858,40.74953 8.74226,1.96591 16.68712,-3.22089 22.61692,-14.76293 z m 30.05629,24.81301 c -2.79958,-2.78505 -3.16422,-97.63544 -0.45233,-117.82216 1.60787,-11.9717 3.29611,-15.02258 8.11776,-14.67329 5.96524,0.44305 6.20047,5.45058 1.02829,21.93111 -0.80676,2.5728 -0.46159,13.36268 0.76865,23.97843 l 2.23649,19.29959 13.07881,0 c 16.88897,0 15.4034,7.80288 -1.76036,9.29999 l -12.1449,1.06332 0.0618,24.60798 0.0618,24.60694 16.53793,0 c 12.49532,0 16.54122,1.1674 16.55132,4.91583 0.0103,3.88753 -4.51914,4.97353 -20.93445,5.01783 -11.52154,0 -21.94307,-0.92732 -23.1592,-2.14211 z M 103.00847,896.09228 c 0.92835,-35.10318 2.25607,-65.68721 2.94991,-67.96327 0.82943,-2.72014 8.1905,-4.15645 21.48661,-4.19252 14.69998,0 19.8566,1.0757 18.87653,4.0833 -0.74186,2.27606 -7.55725,4.6129 -15.14592,5.19299 l -13.79728,1.05715 0.0824,29.26312 0.0824,29.26312 13.66581,-1.87009 c 10.78205,-1.47547 13.3433,-0.89641 12.13686,2.76238 -0.84077,2.5491 -4.38117,5.07141 -7.86738,5.60616 -21.93585,3.3672 -21.21862,2.44194 -21.15144,27.27969 l 0.0618,23.09026 16.81344,0 c 11.97448,0 16.42355,1.14576 15.45863,4.09257 -0.85726,2.61814 -9.43291,4.51914 -23.34497,5.17445 l -21.98984,1.0386 1.68813,-63.82536 z m 341.71013,49.36741 c -0.23286,-1.81857 -0.79852,-4.79424 -1.25827,-6.61282 -0.45954,-1.81754 -1.0862,-27.11895 -1.39252,-56.22443 l -0.5564,-52.92111 -8.26891,0 c -5.14518,0 -8.27406,-1.85258 -8.28241,-4.93952 -0.0103,-3.85147 4.36665,-4.9725 19.56161,-5.01371 10.76618,0 21.93173,0.84489 24.81219,1.94016 8.92947,3.39914 5.78699,7.89973 -5.53702,7.92961 l -10.7903,0 1.39758,59.5329 c 1.24539,53.05609 0.81707,59.53497 -3.93266,59.54836 -2.93157,0.008 -5.52034,-1.47444 -5.75268,-3.29199 z M -14.79154,883.89802 c -0.159705,-58.83432 -0.243164,-59.48962 -7.236391,-58.6911 -3.891446,0.44306 -7.740545,-1.05199 -8.553701,-3.32392 -1.092795,-3.05295 4.630005,-4.14615 21.950484,-4.19355 24.261571,-0.10304 31.155163,4.30998 13.1127138,8.32527 l -10.3324032,2.29872 1.6782427,49.60543 c 1.8535062,54.78399 0.8953788,65.44508 -5.8821953,65.4626 -3.726486,0.0103 -4.605688,-11.02996 -4.73675,-59.48345 z m 886.58538,36.66723 c -0.005,-21.03471 6.60746,-46.44636 14.4972,-55.68349 7.13212,-8.35 8.88444,-21.96409 3.40872,-26.48323 -3.95512,-3.26416 -6.58603,-2.96845 -13.37215,1.50432 -4.6466,3.06222 -9.26589,7.71633 -10.26523,10.34168 -2.6747,7.02702 -11.02923,5.8349 -11.04932,-1.57645 -0.0206,-8.72917 15.28078,-20.12696 27.0699,-20.1589 24.87175,-0.10303 29.35709,16.30125 12.12657,44.25376 -9.18562,14.90203 -10.46089,19.90029 -10.63688,41.68715 -0.16795,20.81833 -1.1203,24.93666 -5.98513,25.89386 -5.02184,0.98914 -5.78637,-1.62281 -5.79368,-19.7787 z m -540.96,-87.06709 c -3.75317,-6.03582 0.84283,-9.06712 11.43694,-7.54117 5.61874,0.80368 9.66906,3.15392 9.00057,5.21257 -1.60859,4.95189 -17.66864,6.7818 -20.43751,2.3286 z M 211.99338,804.51973 c -0.86859,-3.0887 -4.06579,-21.98098 -7.10533,-41.98441 -3.03965,-20.00228 -7.69655,-47.67443 -10.34879,-61.49263 -5.89085,-30.69181 -5.88961,-29.42242 -0.0309,-29.43828 4.51244,-0.0103 11.78902,18.4177 11.74121,29.73729 -0.0515,12.22434 11.54194,68.97713 13.80357,67.5707 1.38675,-0.85932 3.50722,-9.63506 4.71212,-19.49474 1.40571,-11.50474 4.00911,-18.6315 7.26627,-19.89121 2.79154,-1.08012 5.43224,-1.55718 5.86829,-1.06065 0.97265,1.10805 13.64571,28.92032 18.84633,41.36114 3.26056,7.80031 4.52748,1.0862 8.89063,-47.11866 4.55035,-50.2732 5.75031,-56.34117 11.35358,-57.4217 5.48582,-1.05756 5.98204,0.16897 3.98779,9.88378 -1.25261,6.10002 -3.05243,25.23248 -3.99953,42.5172 -0.94793,17.28483 -3.00442,33.83996 -4.5721,36.78791 -1.56748,2.94909 -1.9992,6.2082 -0.95926,7.24196 1.04004,1.03478 0.74288,11.27837 -0.66046,22.76343 -2.19713,17.98156 -2.87624,19.50422 -4.88873,10.96597 -1.28526,-5.45439 -2.50572,-7.18724 -2.71189,-3.85136 -0.6821,11.02665 -7.72313,3.88577 -14.90656,-15.11521 -7.58785,-20.07246 -15.37826,-31.08448 -15.35281,-21.7031 0.008,2.86944 -2.32758,15.71817 -5.18959,28.55393 -5.04287,22.61558 -12.51748,32.67267 -15.74641,21.18864 z m 94.66461,-0.0927 c -3.11002,-1.02727 -4.17902,-16.43634 -4.30235,-62.01091 -0.0927,-33.35446 0.73258,-63.00118 1.82929,-65.88195 2.81483,-7.39424 40.97023,-7.74992 40.99022,-0.37917 0.01,3.67528 -3.84549,4.97167 -14.87071,5.00145 l -14.8841,0.0412 0.0824,29.76893 c 0.0824,28.64377 0.36165,29.77026 7.52283,29.82198 l 7.44226,0.0824 -7.68676,5.94639 c -6.36616,4.92489 -7.9155,9.74592 -9.0184,28.06564 -0.81088,13.4618 -0.0309,22.11472 1.97447,22.10926 1.81827,-0.005 3.31136,1.9755 3.31785,4.40199 0.0103,4.43362 -4.71408,5.60245 -12.39517,3.06489 z m 25.62762,-2.30738 c -0.008,-3.0683 2.8139,-5.21195 6.87669,-5.22287 8.06078,-0.0206 6.94233,7.70994 -1.35141,9.34171 -3.262,0.63779 -5.51694,-1.03911 -5.52528,-4.11884 z m 193.50423,-7.12419 c -12.68254,-13.37473 -14.97446,-22.76024 -15.07997,-61.75393 -0.0927,-33.00939 5.75165,-52.49795 18.19154,-60.6972 17.61032,-11.60624 34.39316,-3.68795 42.5647,20.08399 6.29918,18.32436 7.34922,70.58233 1.75676,87.43049 -9.29576,28.00455 -29.12104,34.24695 -47.43303,14.93665 z m 35.6777,-11.9312 c 8.16073,-15.92981 6.31732,-74.95928 -2.91683,-93.39831 -7.98051,-15.93455 -17.26133,-19.10042 -25.27698,-8.6216 -8.48148,11.08796 -10.33818,24.50926 -8.78811,63.52686 1.01799,25.64287 2.83389,36.35166 7.31315,43.14809 8.51527,12.91932 21.72762,10.84655 29.66877,-4.65504 z m -115.41391,12.65915 c -11.69958,-12.37797 -15.6446,-30.29451 -13.92937,-63.25733 1.85948,-35.7389 8.56606,-52.39728 24.07858,-59.80945 13.92917,-6.65671 18.88126,-6.45064 28.3459,1.18028 9.51059,7.668 5.90775,12.92848 -4.91387,7.17539 -12.22424,-6.50041 -22.5553,-3.15165 -30.06319,9.74201 -5.67386,9.745 -6.71709,17.13759 -6.53719,46.32406 0.26789,43.42381 5.85757,57.19893 22.53747,55.53718 9.71893,-0.96338 10.855,-2.36209 14.33297,-17.59919 5.97235,-26.16464 5.39648,-35.09318 -2.39383,-37.10815 -8.39193,-2.16982 -6.49855,-9.53995 2.11007,-8.21347 12.60248,1.94211 14.5517,3.94193 14.58148,14.95942 0.0515,18.64634 -6.20366,46.04091 -11.97479,52.45199 -7.81122,8.67816 -27.37149,7.93054 -36.17423,-1.38274 z m 157.24954,-53.04712 c -0.21329,-59.69735 -1.29763,-65.5644 -12.09462,-65.53514 -4.33574,0.0103 -7.88727,-1.46753 -7.89211,-3.28611 -0.0103,-4.209 45.22157,-4.53439 47.82688,-0.3462 1.05612,1.69823 -2.73709,3.56833 -8.4295,4.15656 l -10.3495,1.06971 0.88095,46.30407 c 0.48427,25.46708 1.09042,50.72779 1.34575,56.13437 0.32765,6.93759 -1.23767,10.17713 -5.32035,11.00626 -5.30694,1.07878 -5.80028,-3.01348 -5.9675,-49.50703 z m -267.87683,-2.19394 c -0.005,-1.92676 1.48144,-2.58712 3.30373,-1.46795 1.82218,1.12021 3.31476,2.6916 3.31692,3.49425 0.002,0.80367 -1.48433,1.463 -3.30353,1.46794 -1.81919,0.005 -3.31187,-1.56748 -3.31712,-3.49424 z m 531.33514,-66.20023 c -1.26703,-1.25981 -2.31748,-7.37631 -2.33427,-13.59131 -0.0309,-12.55694 7.46843,-13.7776 9.30926,-1.51514 1.22427,8.153 -3.55627,18.50663 -6.97499,15.10645 z M 534.5965,654.91186 c -7.8237,-21.06304 -20.79402,-48.63226 -23.26306,-49.44789 -1.6193,-0.53166 -4.92479,10.35198 -7.3454,24.19316 -3.94595,22.5622 -9.67401,32.64423 -15.3424,27.00705 -0.95205,-0.94484 -6.33885,-27.53563 -11.97088,-59.08655 -5.63213,-31.55082 -10.99461,-61.45585 -11.91698,-66.45575 -1.23756,-6.7105 -0.33693,-9.09505 3.43695,-9.10536 2.81267,-0.008 5.87447,2.58887 6.80416,5.7702 2.11789,7.247 10.86839,56.58371 13.87837,78.2491 2.63575,18.97214 6.71843,15.50417 9.94664,-8.44799 3.33279,-24.72739 10.02381,-23.41111 22.97311,4.5177 6.70669,14.46464 11.77037,21.9612 12.80577,18.95905 0.94175,-2.73096 2.59608,-19.10784 3.67559,-36.39297 3.65457,-58.51574 5.08593,-66.16592 12.3825,-66.1857 5.4071,-0.0103 6.21119,1.5648 4.62372,9.08351 -1.05673,5.00526 -3.62592,36.20431 -5.7091,69.33188 -2.84089,45.17655 -4.92025,60.66949 -8.3196,61.98412 -2.49274,0.96544 -5.48943,-0.82016 -6.65939,-3.97356 z m 124.6882,-20.43154 c -0.0412,-14.26517 0.85107,-46.2984 1.97715,-71.18457 1.97045,-43.54838 2.33128,-45.32049 9.60713,-47.16699 4.1579,-1.05611 9.50833,-0.70579 11.88958,0.77174 2.38136,1.47835 6.52256,3.01265 9.20252,3.40934 13.84705,2.05206 17.63237,27.73284 7.14149,48.44875 -5.46768,10.79648 -5.70786,13.5533 -1.86236,21.37678 2.42813,4.94015 4.73201,18.65521 5.11983,30.47853 0.93969,28.64656 0.75113,29.76707 -4.99475,29.78263 -3.78954,0.0103 -5.06595,-4.47865 -5.40421,-19.0047 -0.6007,-25.77485 -3.55195,-37.45012 -10.56568,-41.78956 -9.43785,-5.8383 -12.19477,2.90457 -12.15438,38.54353 0.0309,26.43892 -0.85725,32.25156 -4.92479,32.26259 -3.98819,0.0103 -4.97507,-5.07347 -5.03153,-25.92364 z m 25.09616,-62.6591 c 2.06782,-1.34204 5.2748,-8.01091 7.12666,-14.82043 4.46267,-16.41026 -1.29073,-32.9659 -10.96525,-31.55288 -5.87591,0.86035 -6.77325,3.8152 -7.5727,24.95624 -0.91187,24.10042 1.19284,28.04926 11.41129,21.41707 z m 105.60101,84.44266 c -0.98811,-2.5526 -1.47423,-35.11482 -1.08197,-72.36021 l 0.71403,-67.71814 9.09989,-1.0726 c 12.63401,-1.48794 26.79439,9.49338 35.23548,27.32564 5.40349,11.4151 7.0568,21.24335 7.09935,42.20387 0.0721,33.39165 -3.91669,48.94445 -15.92589,62.16442 -10.48665,11.54369 -32.08609,17.35675 -35.14192,9.45702 z m 27.52687,-14.5037 c 11.4116,-14.5888 14.81167,-37.57087 10.38928,-70.22438 -4.12142,-30.43185 -11.45281,-43.84687 -23.94422,-43.81308 -5.62069,0.0103 -6.02748,4.09865 -5.8789,59.00196 0.0927,32.44167 1.15451,59.9741 2.37064,61.18353 4.34367,4.3209 10.65254,2.04732 17.0632,-6.14803 z m -86.79249,4.40786 c -0.93351,-5.9096 -2.34272,-37.16285 -3.13249,-69.4511 -1.35327,-55.3173 -1.08414,-58.70696 4.66607,-58.72252 5.48736,-0.0103 6.14998,3.23212 6.57789,32.23147 0.26171,17.73592 1.45754,47.12876 2.65749,65.31752 2.39084,36.23956 1.16183,34.73338 24.49979,30.02332 6.29197,-1.26899 9.09464,-0.46778 9.10298,2.59454 0.007,2.76238 -5.76288,5.2374 -15.32808,6.57397 -25.78021,3.60491 -27.18757,3.19039 -29.04365,-8.5672 z m -470.08155,4.6127 c -0.96029,-2.48367 -0.66664,-34.95213 0.65531,-72.15166 2.01609,-56.76691 3.19935,-67.6383 7.36343,-67.64953 3.38781,-0.009 4.85534,3.13455 4.62702,9.91078 -0.18444,5.45728 -0.88199,22.57653 -1.55089,38.04093 l -1.21644,28.1187 11.31814,1.62312 c 16.82086,2.41186 17.2463,9.87565 0.56567,9.92088 l -13.5059,0.0412 0.0721,26.26571 c 0.0618,24.08765 -4.06063,36.91228 -8.32681,25.88459 z m 331.03627,-4.23631 c -9.26537,-8.08901 -16.37317,-38.81987 -8.98315,-38.83986 2.06637,-0.006 3.76945,4.52233 3.78449,10.06255 0.0309,11.70587 13.69095,27.29628 22.47298,25.6508 11.50628,-2.15684 18.69641,-25.04505 18.53042,-58.98774 -0.16588,-34.55162 -5.22503,-54.40946 -15.20474,-59.71558 -5.37877,-2.86016 -8.10828,-1.73378 -15.76413,6.50711 -7.7321,8.32156 -9.61837,13.9473 -11.43705,34.10806 -1.27537,14.13688 -4.18798,26.16288 -7.02805,29.01851 -4.26773,4.29061 -4.85782,2.03464 -4.91418,-18.7908 -0.0309,-13.01637 1.42179,-24.59025 3.238,-25.71931 1.8161,-1.12907 3.29291,-5.42658 3.28178,-9.54995 -0.0309,-10.5189 14.28804,-23.02195 26.39853,-23.05472 14.87575,-0.0412 25.52443,11.87072 30.13826,33.7122 4.94406,23.40462 2.20785,72.35196 -4.80825,86.00983 -9.28944,18.08429 -25.49157,21.99716 -39.70491,9.5889 z M 1.1718584,646.49293 c 0.030911,-3.18391 2.1507637,-33.22659 4.7155242,-66.76147 4.2726774,-55.8673 7.4814104,-71.40455 13.5085764,-65.40973 2.838526,2.82265 -5.038643,120.54302 -8.731952,130.49182 -3.2757058,8.82355 -9.5667463,9.93695 -9.4921486,1.67938 z M 304.27148,636.17474 c -2.49006,-21.30311 -2.56012,-23.37701 -2.2234,-65.74429 0.39772,-50.10021 1.23509,-58.95529 5.71548,-60.46249 4.54068,-1.52688 4.39488,-3.2585 3.8356,45.55211 -0.58215,50.80033 -1.37119,63.4192 -4.3958,70.29888 -1.5716,3.5744 -1.14503,5.79163 1.11361,5.78555 4.35016,-0.0103 4.78002,9.67864 0.71506,16.13454 -1.95437,3.10353 -3.47981,-0.59864 -4.76127,-11.5643 z m 30.74014,-48.90983 c -0.17207,-63.69018 -0.12158,-64.12509 7.26328,-66.12646 15.59433,-4.22445 35.55252,-1.5377 35.56972,4.78765 0.004,1.62487 -7.43422,2.97412 -16.52999,2.99875 l -16.53792,0.0412 0.0824,30.14398 0.0824,30.14386 14.8504,-2.26884 c 12.42527,-1.8975 14.54079,-1.45404 12.95404,2.71499 -1.09516,2.87665 -7.0162,5.42224 -14.01345,6.02428 l -12.11687,1.04262 -0.90672,23.98296 -0.90671,23.98203 15.02907,-0.0412 c 8.26593,-0.0206 15.03299,1.44816 15.03794,3.26674 0.005,1.83816 -8.81129,3.33238 -19.83651,3.36226 l -19.84557,0.0515 -0.1731,-64.11263 z m -292.959796,9.91882 c 2.666251,-67.04966 4.439595,-80.63767 10.526728,-80.65416 5.108502,-0.0103 12.594755,15.30387 33.096456,67.71732 L 98.59927,617.2875 100.956,594.1279 c 1.29629,-12.73767 3.4688,-34.95398 4.82783,-49.36824 1.67917,-17.81021 3.9575,-26.70321 7.10997,-27.75242 3.78748,-1.26002 4.25042,2.03063 2.52221,17.92654 -1.1643,10.70755 -3.67693,40.31141 -5.58381,65.78499 -1.90687,25.47358 -3.97943,46.83862 -4.60579,47.47702 -3.57873,3.6489 -9.564271,-8.03357 -28.452126,-55.53244 -11.55152,-29.05066 -21.611394,-52.20656 -22.355414,-51.45852 -0.743916,0.74392 -2.253078,24.78108 -3.353497,53.40538 -1.530799,39.82035 -3.069635,52.40304 -6.551309,53.56755 -3.798302,1.27043 -4.205292,-7.15994 -2.46224,-50.99403 z M 219.22719,580.47394 c -0.13291,-48.97052 -0.91289,-57.83982 -5.11891,-58.17871 -2.7293,-0.21946 -6.69947,-0.57906 -8.82241,-0.80058 -2.12305,-0.2205 -4.50812,-2.33077 -5.30025,-4.68513 -1.11124,-3.30445 4.11328,-4.07382 22.86842,-3.37029 23.65418,0.88404 33.50201,6.44693 15.2337,8.59934 l -9.09309,1.07147 0.15043,55.65547 c 0.12571,46.41936 -0.67179,55.97292 -4.80557,57.57192 -4.28886,1.65918 -4.97724,-5.86169 -5.11252,-55.86153 z" />
    <rect
       style="fill:none;stroke:#000000;stroke-width:0.2;stroke-opacity:1;stroke-miterlimit:4;stroke-dasharray:none"
       id="rect3330"
       width="1067.7549"
       height="1607.7549"
       x="-94.887627"
       y="-559.47974" />
  </g>
</svg>
