<?xml version="1.0" encoding="UTF-8" standalone="no"?>
<!-- Created with Inkscape (http://www.inkscape.org/) -->

<svg
   xmlns:dc="http://purl.org/dc/elements/1.1/"
   xmlns:cc="http://creativecommons.org/ns#"
   xmlns:rdf="http://www.w3.org/1999/02/22-rdf-syntax-ns#"
   xmlns:svg="http://www.w3.org/2000/svg"
   xmlns="http://www.w3.org/2000/svg"
   xmlns:sodipodi="http://sodipodi.sourceforge.net/DTD/sodipodi-0.dtd"
   xmlns:inkscape="http://www.inkscape.org/namespaces/inkscape"
   width="1080"
   height="1620"
   id="svg2"
   version="1.1"
   inkscape:version="0.48.4 r9939"
   sodipodi:docname="bestOnes.svg">
  <defs
     id="defs4">
    <inkscape:path-effect
       effect="spiro"
       id="path-effect3328"
       is_visible="true" />
  </defs>
  <sodipodi:namedview
     id="base"
     pagecolor="#ffffff"
     bordercolor="#666666"
     borderopacity="1.0"
     inkscape:pageopacity="0.0"
     inkscape:pageshadow="2"
     inkscape:zoom="0.25"
     inkscape:cx="268.51145"
     inkscape:cy="979.71936"
     inkscape:document-units="px"
     inkscape:current-layer="layer1"
     showgrid="false"
     fit-margin-top="0"
     fit-margin-left="0"
     fit-margin-right="0"
     fit-margin-bottom="0" />
  <metadata
     id="metadata7">
    <rdf:RDF>
      <cc:Work
         rdf:about="">
        <dc:format>image/svg+xml</dc:format>
        <dc:type
           rdf:resource="http://purl.org/dc/dcmitype/StillImage" />
        <dc:title />
      </cc:Work>
    </rdf:RDF>
  </metadata>
  <g
     inkscape:label="Layer 1"
     inkscape:groupmode="layer"
     id="layer1"
     transform="translate(101,565.59375)">
    <path
       id="path3061"
       style="fill:#000000;fill-opacity:1"
       d="m 747.10384,443.68396 c -8.73102,-4.15552 -16.64013,-8.31744 -17.5757,-9.24836 -0.93556,-0.93556 6.34905,-28.29747 16.18822,-60.81642 22.24115,-73.50524 23.74186,-84.38064 14.08166,-102.04165 -3.99561,-7.3047 -8.99046,-14.38932 -11.0997,-15.74475 -4.71285,-3.02678 -44.32836,-72.58421 -44.34258,-77.85654 -0.0103,-4.71799 38.67686,-24.7447 40.89882,-21.17122 0.88817,1.42776 3.36854,15.9161 5.5125,32.1951 2.14386,16.28013 5.18784,32.5721 6.76418,36.2071 5.15302,11.87845 13.20751,38.12355 13.2209,43.07853 0.007,2.6645 1.14545,4.84267 2.52942,4.83896 1.38398,-0.004 7.14789,-18.25264 12.80876,-40.55355 13.38154,-52.71534 19.88668,-75.54616 22.18283,-77.85519 5.47129,-5.50045 5.12787,6.01985 -1.22829,41.19495 -11.37398,62.94451 -32.57859,222.56952 -32.51842,244.79418 0.0412,13.36577 -4.5552,13.8655 -27.4226,2.97886 z M 468.38102,369.76813 c -74.58959,-1.13865 -217.11091,-2.9836 -316.71423,-4.10092 l -181.096897,-2.03011 -0.04121,-16.06932 -0.04121,-16.06942 382.854797,-0.19164 382.85465,-0.19165 1.04375,19.01655 1.04365,19.01562 -42.66454,0.1154 c -23.46552,0.0618 -53.67873,0.67076 -67.14039,1.34914 -13.4618,0.67489 -85.50352,0.33487 -160.09331,-0.83561 z m 331.3036,-2.99957 c -1.21602,-1.20943 -2.23051,-9.39293 -2.25431,-18.18598 l -0.0412,-15.98689 35.55653,-0.0927 c 19.55614,-0.0412 45.60589,0.84489 57.88845,1.97612 l 22.33192,2.04772 0.0412,16.06005 0.0412,16.05912 -55.67762,0.15043 c -30.62267,0.0824 -56.67253,-0.83562 -57.88866,-2.04824 z M 290.44885,314.92458 c -3.18544,-0.7027 -5.79657,-3.02698 -5.80234,-5.17218 -0.006,-2.14623 -3.873,-33.65542 -8.59388,-70.02161 C 266.83466,168.7218 257.66202,76.596491 257.53364,53.737234 l -0.0824,-14.056932 17.74777,-0.05152 17.74787,-0.05152 2.81833,137.460738 c 1.55007,75.60356 2.29027,137.84145 1.64506,138.30583 -0.645,0.46572 -3.77944,0.2679 -6.96489,-0.4245 z m -164.82861,-74.77732 -4.47319,-74.40865 -11.30042,0.0309 c -8.97512,0.0206 -11.078176,-1.16111 -10.219787,-5.76092 0.690337,-3.70083 4.680287,-6.15462 11.052927,-6.79839 l 9.97199,-1.00563 -4.08989,-45.31544 c -6.47434,-71.73354 -7.20105,-66.805454 9.85772,-66.851614 17.20569,-0.05152 18.47045,2.553736 18.63613,38.314999 0.0618,12.914268 1.10207,34.865375 2.31635,48.781245 2.04845,23.47531 2.74929,25.29811 9.72068,25.27925 4.13213,-0.0103 9.86987,0.87993 12.75044,1.97365 10.06667,3.83148 5.13127,7.90035 -9.63084,7.94033 l -14.8841,0.0412 0.17826,65.73843 c 0.20091,74.03803 -1.18223,86.41425 -9.6566,86.43722 -5.17259,0.0103 -6.20943,-7.52643 -10.22926,-74.39309 z m 86.6705,41.93804 c -0.47087,-17.73633 -2.30346,-49.3603 -4.07289,-70.276 -1.76943,-20.9156 -3.24573,-39.88877 -3.28066,-42.16266 -0.0412,-2.51087 -4.61176,-4.12234 -11.64002,-4.10328 -15.34993,0.0412 -16.08612,-9.02777 -0.85623,-10.53827 8.60769,-0.85829 10.54713,-2.38187 9.74325,-7.6778 -2.93961,-19.368 -4.74891,-104.212093 -2.22711,-104.436401 1.61126,-0.138067 5.69302,-0.788222 9.07063,-1.43817 14.73099,-2.822864 15.35363,-0.556392 15.50818,56.553628 l 0.14631,54.221213 13.23038,-0.0309 c 9.55511,-0.0309 13.23399,1.34286 13.24378,4.9253 0.01,3.70001 -3.90206,4.97281 -15.37991,5.00392 l -15.3931,0.0412 2.52273,76.06763 c 2.41247,72.74102 2.2541,76.06845 -3.61892,76.08432 -5.51147,0.0103 -6.22963,-3.2926 -6.99756,-32.2292 z M 18.512945,307.41669 C 17.233243,303.41922 5.3220266,148.27635 0.7405517,75.931705 L -1.5108777,40.38115 17.47208,40.329632 36.454934,40.278114 34.444299,173.41527 c -1.105881,73.22437 -2.653783,134.25468 -3.439842,135.62104 -2.306347,4.00911 -11.052415,2.87469 -12.491512,-1.61993 z m 43.083174,-6.73255 C 59.57755,288.25723 54.214448,233.50405 50.907419,191.56199 l -2.281413,-28.93454 20.236591,-0.0515 c 11.13031,-0.0309 20.240197,1.23313 20.244525,2.80649 0.0042,1.57438 -3.629221,33.93444 -8.074483,71.91004 -4.445056,37.97663 -8.078913,70.18832 -8.075204,71.58136 0.0038,1.39304 -2.158285,2.53838 -4.80465,2.5456 -2.871291,0.008 -5.515286,-4.31977 -6.556666,-10.73198 z m 268.870291,5.20824 c -31.06861,-17.48152 -20.31098,-104.02683 16.83766,-135.45751 21.17813,-17.91747 38.75898,-15.77969 49.37792,6.00532 l 7.19508,14.762 -10.10995,14.77901 c -5.56052,8.12919 -12.24042,16.92173 -14.84433,19.53976 -2.60392,2.61896 -10.83409,11.84651 -18.28922,20.50829 -11.21779,13.03142 -13.26995,17.52315 -11.90277,26.04677 2.01012,12.53396 9.79136,18.70847 23.5292,18.67127 13.23254,-0.0309 26.92977,-13.9642 30.40444,-30.91787 2.7935,-13.62985 8.59203,-17.78352 10.09192,-7.22846 1.57047,11.05046 -13.21348,35.74591 -27.28051,45.56932 -16.34473,11.41428 -42.03788,15.02001 -55.00944,7.7221 z m 37.80034,-78.42714 c 20.61896,-17.08968 23.51714,-36.34053 6.44044,-42.78046 -6.205,-2.33962 -10.67716,-1.68865 -17.9017,2.60474 -9.13369,5.42905 -9.62733,6.88216 -9.56973,28.16404 0.0721,26.09468 2.42071,27.436 21.03099,12.01168 z m 136.54104,70.95707 c -6.50886,-6.47465 -7.0637,-34.09199 -0.85623,-42.62982 3.30848,-4.55077 5.08811,-5.06461 6.98303,-2.01682 1.39871,2.24968 0.89126,5.75114 -1.12782,7.78124 -4.48102,4.50554 -4.68709,22.03869 -0.33796,28.81904 2.48614,3.87775 4.45196,4.1341 9.04837,1.18306 6.78417,-4.35614 7.01332,0.38329 -4.06351,-84.0467 -7.97763,-60.80766 -18.79513,-155.196452 -18.83438,-164.341782 -0.0103,-2.883965 6.48371,-4.152332 21.48157,-4.192928 l 21.49929,-0.06182 0.17928,66.1517 c 0.10304,36.3837 0.80883,66.14994 1.5783,66.14788 0.76967,-0.002 5.85262,-4.48143 11.29527,-9.95303 9.81001,-9.86338 26.63355,-13.40698 35.55024,-7.488 24.8328,16.48455 3.80006,97.2742 -34.53359,132.64918 -17.19509,15.86768 -38.57805,21.22676 -47.86062,11.99519 z m 69.2881,-55.60024 c 10.97658,-24.63673 14.65093,-62.94719 7.00425,-73.02819 -7.02094,-9.25527 -20.12624,-4.58827 -29.44168,10.48531 -7.10193,11.49124 -7.60114,15.40278 -6.61488,51.82234 0.5873,21.6658 1.91162,40.75169 2.94434,42.41293 3.38668,5.44656 16.83467,-10.87777 26.10797,-31.69239 z m 52.03253,50.4498 C 592.9381,260.73438 602.1163,183.67679 641.85933,161.19804 c 16.75172,-9.47515 27.02787,-8.67971 38.77196,3.00163 10.8718,10.81296 17.15954,32.36964 17.23177,59.07738 0.10612,39.28941 -21.72618,75.30496 -47.75656,78.78066 -11.58696,1.54708 -14.54274,0.4616 -23.97808,-8.78584 z m 28.36904,-11.64157 c 17.31904,-22.13976 15.28141,-96.67567 -2.79834,-102.36065 -18.02483,-5.66665 -24.4541,12.23165 -22.72809,63.27092 1.23591,36.54866 4.61815,47.49949 14.66206,47.47229 2.37404,-0.006 7.26287,-3.77842 10.86437,-8.38256 z m 186.14132,9.84927 c -13.94731,-7.68068 -21.20812,-30.08267 -15.01991,-46.34096 3.78666,-9.94808 8.21194,-5.31416 6.05757,6.34298 -4.63908,25.10285 19.0659,37.72141 36.99655,19.69307 6.7137,-6.75047 8.08479,-10.98698 7.23135,-22.34645 -1.05282,-14.01613 -1.05282,-14.01613 -21.82561,-21.06427 -26.0956,-8.85436 -29.53246,-11.75584 -32.17975,-27.17109 -2.6544,-15.45646 5.43863,-37.49504 17.17932,-46.78256 8.92422,-7.05835 27.11164,-8.70877 37.1508,-3.37091 7.63411,4.05857 15.40371,25.71118 10.86407,30.27555 -2.06906,2.07977 -3.96388,-0.54609 -5.35816,-7.41743 -6.36739,-31.39431 -30.85017,-22.0631 -36.85004,14.0456 -2.84646,17.12914 0.55021,25.6678 11.11506,27.93592 26.94555,5.78359 39.9781,17.01848 42.68556,36.79708 4.33863,31.69548 -29.87319,54.91969 -58.04681,39.40347 z M 56.693998,119.07186 C 54.43515,116.82455 52.569588,108.51875 52.548157,100.61387 52.476032,72.260653 78.236564,60.821957 83.518371,86.864394 87.779406,107.87324 68.594808,130.90837 56.693998,119.07186 z" />
    <text
       xml:space="preserve"
       style="font-size:172.90345764px;font-style:normal;font-variant:normal;font-weight:normal;font-stretch:normal;text-align:start;line-height:125%;letter-spacing:0px;word-spacing:0px;writing-mode:lr-tb;text-anchor:start;fill:#000000;fill-opacity:1;stroke:none;font-family:Latin Modern Mono;-inkscape-font-specification:Latin Modern Mono"
       x="189.05246"
       y="822.82751"
       id="text3079"
       sodipodi:linespacing="125%"><tspan
         sodipodi:role="line"
         id="tspan3081"
         x="189.05246"
         y="822.82751">BEST</tspan></text>
    <text
       sodipodi:linespacing="125%"
       id="text3083"
       y="-202.43542"
       x="425.43793"
       style="font-size:76.52368927px;font-style:normal;font-variant:normal;font-weight:normal;font-stretch:normal;text-align:center;line-height:125%;letter-spacing:0px;word-spacing:0px;writing-mode:lr-tb;text-anchor:middle;fill:#000000;fill-opacity:1;stroke:none;font-family:Purisa;-inkscape-font-specification:Purisa"
       xml:space="preserve"><tspan
         style="font-style:normal;font-variant:normal;font-weight:normal;font-stretch:normal;font-family:Purisa;-inkscape-font-specification:Purisa"
         y="-202.43542"
         x="425.43793"
         id="tspan3085"
         sodipodi:role="line">HOW IS IT POSISBLE</tspan><tspan
         style="font-style:normal;font-variant:normal;font-weight:normal;font-stretch:normal;font-family:Purisa;-inkscape-font-specification:Purisa"
         id="tspan3087"
         y="-106.78082"
         x="425.43793"
         sodipodi:role="line"
         dx="-158">THAT OUT OF</tspan><tspan
         style="font-style:normal;font-variant:normal;font-weight:normal;font-stretch:normal;font-family:Purisa;-inkscape-font-specification:Purisa"
         id="tspan3089"
         y="-11.126202"
         x="425.43793"
         sodipodi:role="line">OF THE</tspan></text>
    <text
       sodipodi:linespacing="125%"
       id="text3091"
       y="-69.208977"
       x="635.57318"
       style="font-size:168.60714722px;font-style:normal;font-variant:normal;font-weight:normal;font-stretch:normal;text-align:start;line-height:125%;letter-spacing:0px;word-spacing:0px;writing-mode:lr-tb;text-anchor:start;fill:#000000;fill-opacity:1;stroke:none;font-family:Latin Modern Mono;-inkscape-font-specification:Latin Modern Mono"
       xml:space="preserve"><tspan
         y="-69.208977"
         x="635.57318"
         id="tspan3093"
         sodipodi:role="line">ALL</tspan></text>
    <text
       sodipodi:linespacing="125%"
       id="text3095"
       y="547.06781"
       x="426.15793"
       style="font-size:83.15853882px;font-style:normal;font-variant:normal;font-weight:bold;font-stretch:normal;text-align:center;line-height:125%;letter-spacing:0px;word-spacing:0px;writing-mode:lr-tb;text-anchor:middle;fill:#000000;fill-opacity:1;stroke:none;font-family:Purisa;-inkscape-font-specification:Purisa Bold"
       xml:space="preserve"><tspan
         y="547.06781"
         x="426.15793"
         id="tspan3097"
         sodipodi:role="line"
         dy="26">IN THE WORLD</tspan><tspan
         id="tspan3099"
         y="651.01599"
         x="426.15793"
         sodipodi:role="line"
         dy="22">WE GOT</tspan><tspan
         id="tspan3101"
         y="754.96417"
         x="426.15796"
         sodipodi:role="line"
         dx="-23.604904 0 0 60.782658 270.33847"
         dy="52">THE ONES?</tspan></text>
  </g>
</svg>
